<svg width="16" height="16" viewBox="0 0 16 16" fill="none" xmlns="http://www.w3.org/2000/svg">
<g clip-path="url(#clip0_261_1574)">
<path d="M15.671 6.545H8.03499V9.818H12.363C11.671 12 9.96199 12.727 7.99999 12.727C7.23969 12.728 6.49037 12.5455 5.81562 12.1951C5.14086 11.8447 4.56058 11.3368 4.12401 10.7143C3.68744 10.0918 3.40745 9.37322 3.30782 8.61947C3.20818 7.86573 3.29183 7.09907 3.55166 6.38454C3.8115 5.67001 4.23985 5.0287 4.80039 4.51503C5.36092 4.00135 6.03709 3.63046 6.77153 3.43382C7.50597 3.23719 8.277 3.22061 9.01921 3.3855C9.76142 3.55039 10.4529 3.89188 11.035 4.381L13.413 2.116C12.4553 1.23383 11.2969 0.598747 10.0381 0.265867C8.77932 -0.0670124 7.45833 -0.0876225 6.18979 0.205826C4.92125 0.499275 3.74351 1.09791 2.7588 1.94977C1.7741 2.80163 1.0122 3.88096 0.539243 5.09406C0.0662878 6.30716 -0.103427 7.61737 0.0448316 8.91094C0.19309 10.2045 0.654842 11.4423 1.39 12.517C2.12516 13.5916 3.1115 14.4706 4.26341 15.0775C5.41531 15.6845 6.69796 16.0012 7.99999 16C12.411 16 16.4 13.091 15.671 6.545Z" fill="white"/>
</g>
<defs>
<clipPath id="clip0_261_1574">
<rect width="16" height="16" fill="white"/>
</clipPath>
</defs>
</svg>
